<?xml version="1.0" encoding="UTF-8" standalone="no"?>
<svg width="101px" height="35px" viewBox="0 0 101 35" version="1.1" xmlns="http://www.w3.org/2000/svg" xmlns:xlink="http://www.w3.org/1999/xlink" xmlns:sketch="http://www.bohemiancoding.com/sketch/ns">
    <!-- Generator: Sketch 3.3.2 (12043) - http://www.bohemiancoding.com/sketch -->
    <title>TANGO</title>
    <desc>Created with Sketch.</desc>
    <defs></defs>
    <g id="Page-1" stroke="none" stroke-width="1" fill="none" fill-rule="evenodd" sketch:type="MSPage">
        <g id="Artboard-4" sketch:type="MSArtboardGroup" transform="translate(-114.000000, -74.000000)" fill="#4BAE4E">
            <path d="M114.158715,100.313401 L116.668426,74.8633571 L124.511275,74.84375 L124.13874,78.7259601 L128.138593,78.7455672 L127.550379,84.6277038 L123.530919,84.6473109 L122.550563,94.4508718 L126.471987,94.4508718 L125.922988,100.333008 L114.158715,100.313401 Z M149.804462,78.7847815 L147.628072,100.333008 L139.824437,100.333008 L140.275401,96.3723698 L135.883406,100.313401 L128.079771,100.313401 L130.216947,78.7847815 L149.804462,78.7847815 Z M141.393007,84.6473109 L137.451975,84.6473109 L136.471619,94.4312647 L140.451865,94.4508718 L141.393007,84.6473109 Z M171.489939,78.7847815 L169.333156,100.333008 L161.509914,100.352616 L163.078484,84.6473109 L159.117845,84.6473109 L157.568882,100.333008 L149.804462,100.313401 L151.941638,78.7847815 L171.489939,78.7847815 Z M193.175416,78.7847815 L190.234347,108.15625 L170.686047,108.15625 L171.254653,102.352542 L182.979712,102.332935 L184.783568,84.6473109 L180.862143,84.6473109 L179.881787,94.4508718 L181.822892,94.4508718 L181.254286,100.352616 L171.470332,100.352616 L173.627115,78.7847815 L193.175416,78.7847815 Z M214.841285,78.7847815 L212.664895,100.333008 L193.155809,100.313401 L195.292985,78.7847815 L214.841285,78.7847815 Z M206.42983,84.6473109 L202.528013,84.6473109 L201.547657,94.4312647 L205.469081,94.4508718 L206.42983,84.6473109 Z" id="TANGO" sketch:type="MSShapeGroup"></path>
        </g>
    </g>
</svg>